<svg xmlns="http://www.w3.org/2000/svg" viewBox="0 0 64 64"><defs><linearGradient id="g" x1="0" y1="0" x2="1" y2="1"><stop stop-color="#18f2d0"/><stop offset=".52" stop-color="#2b8cff"/><stop offset="1" stop-color="#8b2cff"/></linearGradient></defs><rect width="64" height="64" rx="14" fill="#07111f"/><path d="M8 49V36h8v13H8Zm11 0V28h8v21h-8Zm11 0V19h8v30h-8Z" fill="url(#g)"/><path d="M31 14h13c8 0 13 4 13 11 0 5-3 9-8 10l10 15H48L39 36h-1v14h-8V14Zm8 7v9h5c3 0 5-2 5-5s-2-4-5-4h-5Z" fill="url(#g)"/></svg>